<svg width="465" height="23" viewBox="0 0 465 23" fill="none" xmlns="http://www.w3.org/2000/svg">
<path d="M35.62 5.72998H13.21C12.54 5.72998 12 6.26998 12 6.93998V10.42C10.65 7.63998 7.8 5.72998 4.51 5.72998H1.21C0.54 5.72998 0 6.26998 0 6.93998V17.36C0 18.03 0.54 18.57 1.21 18.57H35.62C36.29 18.57 36.83 18.03 36.83 17.36V6.93998C36.83 6.26998 36.29 5.72998 35.62 5.72998ZM35.99 17.36C35.99 17.57 35.82 17.73 35.62 17.73H12.84V6.93998C12.84 6.72998 13.01 6.56998 13.21 6.56998H35.62C35.83 6.56998 35.99 6.73998 35.99 6.93998V17.36ZM0.84 17.36V6.93998C0.84 6.72998 1.01 6.56998 1.21 6.56998H4.5C8.63 6.56998 11.99 9.92998 11.99 14.06V17.73H1.21C1 17.73 0.84 17.56 0.84 17.36Z" fill="#231F20"/>
<path d="M22.0302 9.97998H21.1902C21.0576 9.97998 20.9502 10.0874 20.9502 10.22V14.09C20.9502 14.2225 21.0576 14.33 21.1902 14.33H22.0302C22.1627 14.33 22.2702 14.2225 22.2702 14.09V10.22C22.2702 10.0874 22.1627 9.97998 22.0302 9.97998Z" fill="#231F20"/>
<path d="M19.6301 9.97998H16.6101C16.4801 9.97998 16.3701 10.09 16.3701 10.22V14.1C16.3701 14.23 16.4801 14.34 16.6101 14.34H17.4601C17.5901 14.34 17.7001 14.23 17.7001 14.1V13.3H19.2401C19.3701 13.3 19.4801 13.19 19.4801 13.06V12.43C19.4801 12.3 19.3701 12.19 19.2401 12.19H17.7001V11.21H19.6301C19.7601 11.21 19.8701 11.1 19.8701 10.97V10.23C19.8701 10.1 19.7601 9.98998 19.6301 9.98998V9.97998Z" fill="#231F20"/>
<path d="M32.2104 9.97997H31.3604C31.2304 9.97997 31.1204 10.09 31.1204 10.22V12.12L29.8004 10.12C29.7404 10.03 29.6404 9.97997 29.5404 9.97997H28.8904C28.7604 9.97997 28.6504 10.09 28.6504 10.22V14.1C28.6504 14.23 28.7604 14.34 28.8904 14.34H29.7404C29.8704 14.34 29.9804 14.23 29.9804 14.1V12.22L31.2704 14.19C31.3304 14.28 31.4304 14.33 31.5304 14.33H32.2104C32.3404 14.33 32.4504 14.22 32.4504 14.09V10.21C32.4504 10.08 32.3404 9.96997 32.2104 9.96997V9.97997Z" fill="#231F20"/>
<path d="M27.1196 9.97997H26.2696C26.1396 9.97997 26.0296 10.09 26.0296 10.22V12.12L24.7096 10.12C24.6496 10.03 24.5496 9.97997 24.4496 9.97997H23.7996C23.6696 9.97997 23.5596 10.09 23.5596 10.22V14.1C23.5596 14.23 23.6696 14.34 23.7996 14.34H24.6496C24.7796 14.34 24.8896 14.23 24.8896 14.1V12.22L26.1796 14.19C26.2396 14.28 26.3396 14.33 26.4396 14.33H27.1196C27.2496 14.33 27.3596 14.22 27.3596 14.09V10.21C27.3596 10.08 27.2496 9.96997 27.1196 9.96997V9.97997Z" fill="#231F20"/>
<path d="M60.6005 4.85999C63.9005 4.85999 66.2205 7.24998 66.2205 10.7V12.13H63.3805V10.7C63.3805 8.84999 62.2605 7.67999 60.6005 7.67999C58.9405 7.67999 57.8205 8.82999 57.8205 10.7H54.9805C54.9805 7.24998 57.3205 4.85999 60.6005 4.85999ZM54.9905 19.45H66.2405V16.64H58.4705L62.4705 12.15H58.9905L54.9905 16.64V19.45Z" fill="#150E1A"/>
<path d="M86.4503 7.76998H88.5003V16.7H85.8903L83.1803 9.82998L83.3103 16.7H81.2803V7.76998H84.3903L86.5603 13.35L86.4603 7.76998H86.4503ZM95.9703 13.94H91.6603V14.29C91.6603 14.97 92.0803 15.36 92.8003 15.36C93.4403 15.36 93.8003 15.1 93.8603 14.59H95.9403C95.7203 15.95 94.4703 16.81 92.7603 16.81C90.8203 16.81 89.5403 15.56 89.5403 13.65V13.25C89.5403 11.38 90.9003 10.05 92.7603 10.05C94.9503 10.05 96.2303 11.58 95.9703 13.93V13.94ZM93.8703 12.49C93.8703 11.89 93.4403 11.49 92.7603 11.49C92.0803 11.49 91.6703 11.89 91.6703 12.49V12.64H93.8703V12.49ZM100.11 15.06H100.93V16.76H99.4803C98.1403 16.76 97.4603 16.06 97.4603 14.65V11.84H96.3603V10.2H97.4603V8.41998H99.5603V10.2H100.88V11.84H99.5603V14.44C99.5603 14.86 99.7403 15.07 100.11 15.07V15.06ZM103.78 10.2H105.2V11.84H103.78V14.44C103.78 14.86 103.96 15.07 104.33 15.07H104.93V16.77H103.7C102.36 16.77 101.68 16.07 101.68 14.66V8.42998H103.78V10.21V10.2ZM111.8 12.55V16.69H109.87V15.47C109.61 16.29 108.82 16.81 107.82 16.81C106.6 16.81 105.81 16.07 105.81 14.92C105.81 13.87 106.42 13.31 107.91 12.98L108.72 12.8C109.56 12.61 109.74 12.49 109.74 12.17C109.74 11.77 109.45 11.57 108.9 11.57C108.26 11.57 107.95 11.84 107.95 12.38H106.11C106.14 10.97 107.26 10.07 108.96 10.07C110.83 10.07 111.8 10.93 111.8 12.55ZM109.75 13.34C109.62 13.6 109.42 13.74 109.02 13.85L108.56 13.98C108.04 14.12 107.86 14.32 107.86 14.68C107.86 15.09 108.13 15.29 108.64 15.29C109.34 15.29 109.75 14.93 109.75 14.29V13.33V13.34ZM116.71 10.2H118.86L117.08 16.7H114.02L112.24 10.2H114.43L115.57 15.61L116.71 10.2ZM119.57 7.47998H121.77V9.41998H119.57V7.47998ZM119.64 10.2H121.74V16.7H119.64V10.2ZM128.59 14.57C128.59 15.91 127.43 16.82 125.69 16.82C123.82 16.82 122.67 15.94 122.62 14.48H124.55C124.55 15.11 124.95 15.44 125.71 15.44C126.31 15.44 126.67 15.24 126.67 14.88C126.67 14.59 126.5 14.46 125.9 14.32L124.71 14.04C123.53 13.76 122.92 13.15 122.92 12.2C122.92 10.91 124.01 10.08 125.67 10.08C127.33 10.08 128.46 10.94 128.48 12.2H126.54C126.54 11.69 126.18 11.41 125.57 11.41C125.05 11.41 124.76 11.61 124.76 11.93C124.76 12.2 124.96 12.34 125.53 12.45L126.76 12.71C127.97 12.97 128.59 13.59 128.59 14.58V14.57ZM135.74 13.94H131.43V14.29C131.43 14.97 131.85 15.36 132.57 15.36C133.21 15.36 133.57 15.1 133.63 14.59H135.71C135.49 15.95 134.24 16.81 132.53 16.81C130.59 16.81 129.31 15.56 129.31 13.65V13.25C129.31 11.38 130.67 10.05 132.53 10.05C134.72 10.05 136 11.58 135.74 13.93V13.94ZM133.64 12.49C133.64 11.89 133.21 11.49 132.53 11.49C131.85 11.49 131.44 11.89 131.44 12.49V12.64H133.64V12.49ZM142.91 12.06V16.69H140.81V12.8C140.81 12.13 140.48 11.76 139.88 11.76C139.24 11.76 138.87 12.14 138.87 12.81V16.68H136.77V10.18H138.8V11.36C139.18 10.53 139.93 10.06 140.88 10.06C142.12 10.06 142.9 10.83 142.9 12.06H142.91ZM146.3 14.61V16.69H144.14V14.61H146.3Z" fill="#231F20"/>
<path d="M166.37 15C166.53 15.43 166.76 15.8 167.04 16.1C167.33 16.4 167.66 16.64 168.06 16.8C168.45 16.96 168.88 17.04 169.34 17.04C169.8 17.04 170.21 16.96 170.6 16.79C170.99 16.62 171.33 16.39 171.63 16.08C171.92 15.78 172.15 15.41 172.31 14.99C172.47 14.57 172.55 14.1 172.55 13.57V5.52002H174.51V18.57H172.57V17.36C172.14 17.82 171.62 18.17 171.03 18.42C170.44 18.67 169.8 18.79 169.12 18.79C168.44 18.79 167.77 18.67 167.17 18.43C166.57 18.19 166.05 17.84 165.6 17.4C165.15 16.96 164.81 16.42 164.56 15.79C164.31 15.16 164.18 14.46 164.18 13.69V5.52002H166.14V13.57C166.14 14.09 166.22 14.57 166.38 15H166.37Z" fill="#040404"/>
<path d="M177.87 5.52002V10.27C178.3 9.84002 178.81 9.49002 179.38 9.24002C179.95 8.99002 180.57 8.86002 181.24 8.86002C181.91 8.86002 182.59 8.99002 183.2 9.25002C183.81 9.51002 184.34 9.87002 184.78 10.31C185.22 10.75 185.58 11.29 185.84 11.89C186.1 12.5 186.23 13.15 186.23 13.83C186.23 14.51 186.1 15.16 185.84 15.76C185.58 16.36 185.22 16.89 184.78 17.34C184.33 17.79 183.8 18.14 183.2 18.4C182.59 18.66 181.94 18.79 181.24 18.79C180.54 18.79 179.94 18.66 179.37 18.41C178.79 18.16 178.29 17.81 177.85 17.38V18.57H175.99V5.52002H177.87ZM178.09 15.12C178.26 15.52 178.49 15.87 178.79 16.16C179.09 16.45 179.44 16.69 179.83 16.87C180.23 17.04 180.66 17.13 181.12 17.13C181.58 17.13 181.99 17.04 182.39 16.87C182.79 16.7 183.13 16.46 183.42 16.16C183.71 15.86 183.95 15.51 184.12 15.12C184.29 14.72 184.38 14.29 184.38 13.83C184.38 13.37 184.29 12.94 184.12 12.53C183.95 12.12 183.71 11.77 183.42 11.48C183.13 11.18 182.78 10.95 182.39 10.78C182 10.61 181.57 10.53 181.12 10.53C180.67 10.53 180.25 10.61 179.85 10.78C179.45 10.95 179.1 11.18 178.81 11.48C178.51 11.78 178.28 12.13 178.1 12.53C177.93 12.93 177.84 13.37 177.84 13.83C177.84 14.29 177.92 14.72 178.09 15.12Z" fill="#040404"/>
<path d="M187.31 11.91C187.56 11.31 187.9 10.79 188.34 10.33C188.78 9.87 189.29 9.52 189.89 9.26C190.49 9 191.13 8.87 191.83 8.87C192.53 8.87 193.15 8.99 193.73 9.24C194.31 9.49 194.82 9.83 195.24 10.27C195.66 10.71 195.99 11.23 196.23 11.84C196.47 12.44 196.58 13.1 196.58 13.81V14.43H188.84C188.9 14.82 189.03 15.17 189.21 15.5C189.4 15.83 189.63 16.12 189.91 16.36C190.19 16.6 190.51 16.79 190.86 16.93C191.21 17.07 191.59 17.14 191.99 17.14C193.12 17.14 194.03 16.67 194.73 15.74L196.09 16.75C195.62 17.38 195.03 17.88 194.34 18.24C193.64 18.6 192.86 18.78 191.99 18.78C191.28 18.78 190.62 18.66 190 18.41C189.38 18.16 188.85 17.81 188.4 17.37C187.95 16.93 187.59 16.4 187.33 15.79C187.07 15.18 186.94 14.53 186.94 13.82C186.94 13.15 187.06 12.52 187.31 11.92V11.91ZM189.93 11.17C189.4 11.61 189.05 12.2 188.88 12.93H194.68C194.52 12.2 194.17 11.61 193.65 11.17C193.12 10.73 192.5 10.51 191.8 10.51C191.09 10.51 190.47 10.73 189.95 11.17H189.93Z" fill="#040404"/>
<path d="M200.1 11.39C199.7 11.82 199.5 12.42 199.5 13.16V18.57H197.62V9.05998H199.48V10.23C199.72 9.83998 200.02 9.53998 200.4 9.31998C200.78 9.09998 201.23 8.97998 201.75 8.97998H202.4V10.73H201.62C201 10.73 200.49 10.95 200.09 11.38L200.1 11.39Z" fill="#040404"/>
<path d="M241.18 13.68C241.18 13.68 241.19 13.68 241.19 13.67C241.19 13.66 241.19 13.67 241.19 13.66C240.99 13.63 240.81 13.57 240.65 13.46C240.29 13.23 240 12.79 239.76 12.05C239.73 11.95 238.52 7.83002 238.44 7.56002C238.16 6.62002 237.64 6.20002 237.16 6.02002C236.91 5.93002 236.68 5.90002 236.49 5.90002H236.16C236.16 5.90002 236.15 5.90002 236.15 5.91002C236.15 5.92002 236.15 5.91002 236.15 5.92002C236.28 5.94002 236.43 5.97002 236.57 6.04002C237.02 6.23002 237.48 6.65002 237.75 7.56002C237.81 7.76002 239.03 11.92 239.06 12C239.31 12.77 239.6 13.23 239.97 13.47C240.21 13.62 240.47 13.68 240.79 13.68H241.19H241.18Z" fill="#232720"/>
<path d="M242.26 13.68C242.26 13.68 242.27 13.68 242.27 13.67C242.27 13.66 242.27 13.67 242.27 13.66C241.73 13.59 241.37 12.83 241.18 12.18C240.98 11.5 240.24 9.01004 239.8 7.57004C239.36 6.12004 237.99 5.92004 237.37 5.92004C237.37 5.92004 237.36 5.92004 237.36 5.93004C237.36 5.94004 237.36 5.93004 237.36 5.94004C237.94 6.02004 238.76 6.37004 239.12 7.58004C239.43 8.64004 240.42 12.01 240.46 12.12C240.7 12.82 240.98 13.25 241.33 13.48C241.57 13.63 241.84 13.7 242.15 13.7H242.26V13.68Z" fill="#232720"/>
<path d="M227.99 18.4001H227.82C227.33 18.4001 226.73 18.1501 226.4 16.9901L223.45 6.92005C223.27 6.31005 223.01 6.01005 222.57 5.94005C222.57 5.94005 222.57 5.93005 222.58 5.93005H223.02C223.61 5.93005 223.93 6.23005 224.14 6.93005C224.14 6.93005 226.87 16.1901 227.12 17.0601C227.3 17.7101 227.52 18.1501 227.85 18.3201C227.9 18.3501 227.95 18.3701 227.99 18.3801C227.99 18.3801 227.99 18.3801 227.99 18.3901V18.4001Z" fill="#232720"/>
<path d="M226.99 7.30003C226.71 6.32003 226.27 5.91003 225.45 5.91003H225.05C225.05 5.91003 225.04 5.91003 225.04 5.92003C225.04 5.93003 225.04 5.92003 225.04 5.93003C225.68 6.02003 226.05 6.44003 226.29 7.30003C226.29 7.30003 228.73 15.62 229.05 16.7C229.12 16.47 229.24 16.07 229.38 15.57C229.09 14.57 226.97 7.30003 226.97 7.30003H226.99Z" fill="#232720"/>
<path d="M228.22 18.4H228.51C228.87 18.4 229.13 18.3 229.33 18.14C229.65 17.88 229.79 17.45 229.93 17.01C229.95 16.94 232.53 8.18004 232.62 7.84004C232.93 6.68004 233.62 6.18004 234.35 6.00004C234.47 5.97004 234.59 5.95004 234.72 5.94004C234.72 5.94004 234.72 5.94004 234.72 5.93004C234.72 5.92004 234.72 5.92004 234.71 5.92004H234.39C233.42 5.92004 232.34 6.30004 231.93 7.84004C231.78 8.39004 229.25 16.95 229.24 17.01C229.11 17.46 228.95 17.93 228.64 18.19C228.51 18.3 228.39 18.35 228.22 18.38C228.22 18.38 228.22 18.38 228.22 18.39V18.4Z" fill="#232720"/>
<path d="M241.49 12.36L243.01 7.29002C243.26 6.43002 243.63 6.01002 244.26 5.92002C244.26 5.92002 244.26 5.92002 244.26 5.91002C244.26 5.90002 244.26 5.90002 244.25 5.90002H243.85C243.04 5.90002 242.59 6.31002 242.31 7.28002L241.14 11.23C241.14 11.23 241.45 12.27 241.48 12.35L241.49 12.36Z" fill="#232720"/>
<path d="M245.49 5.92004H245.07C244.38 5.92004 244 6.27004 243.76 7.10004C243.76 7.10004 242.26 12.13 242.24 12.17C242.13 12.53 241.99 12.87 241.85 13.09C241.98 13.27 242.12 13.38 242.26 13.41C242.52 13.19 242.74 12.77 242.93 12.14C242.94 12.11 244.44 7.10004 244.44 7.10004C244.65 6.38004 244.96 6.02004 245.49 5.94004C245.49 5.94004 245.49 5.94004 245.49 5.93004V5.92004Z" fill="#0A9679"/>
<path d="M242.41 13.9401H241.73C241.42 14.9601 241.01 16.3101 240.86 16.8201C240.44 18.2401 241.1 18.3801 241.36 18.3801H241.9C241.9 18.3801 241.91 18.3801 241.91 18.3701C241.91 18.3601 241.91 18.3701 241.91 18.3601C241.62 18.2901 241.22 17.9901 241.57 16.8101C241.57 16.8101 242.19 14.7201 242.42 13.9301L242.41 13.9401Z" fill="#232720"/>
<path d="M246.39 5.93003C246.39 5.93003 246.39 5.93003 246.39 5.92003C246.39 5.91003 246.39 5.91003 246.38 5.91003H246.28C245.69 5.91003 245.37 6.21003 245.16 6.91003C245.16 6.91003 244 10.82 243.63 12.03C243.26 13.24 243.01 13.57 242.52 13.65H242.49C242.49 13.65 242.49 13.66 242.49 13.67C242.49 13.68 242.49 13.68 242.5 13.68H242.84C243.71 13.68 244.03 13.1 244.33 12.09C244.59 11.24 246.08 6.26003 246.08 6.26003C246.12 6.12003 246.24 5.98003 246.38 5.93003H246.39Z" fill="#232720"/>
<path d="M243.1 13.92C242.86 14.73 242.18 17.05 242.18 17.05C241.82 18.26 242.39 18.38 242.61 18.38H243.14C243.14 18.38 243.15 18.38 243.15 18.37C243.15 18.36 243.15 18.37 243.15 18.36C242.9 18.3 242.58 18.03 242.87 17.05C242.87 17.05 243.62 14.52 243.9 13.55C243.74 13.72 243.46 13.87 243.11 13.92H243.1Z" fill="#232720"/>
<path d="M244.38 18.38C244.38 18.38 244.39 18.38 244.39 18.37C244.39 18.36 244.39 18.37 244.39 18.36C244.18 18.3 243.92 18.07 244.17 17.25C244.17 17.25 247.06 7.43003 247.22 6.87003C247.38 6.31003 246.99 5.97003 246.64 5.91003C246.64 5.91003 246.63 5.91003 246.62 5.91003C246.61 5.91003 246.62 5.92003 246.63 5.92003C246.7 5.96003 246.78 6.04003 246.74 6.19003C246.7 6.34003 243.49 17.24 243.49 17.24C243.18 18.27 243.67 18.37 243.85 18.37H244.39L244.38 18.38Z" fill="#232720"/>
<path d="M239.82 13.68C239.82 13.68 239.83 13.68 239.83 13.67C239.83 13.66 239.83 13.67 239.83 13.66C239.63 13.63 239.46 13.57 239.29 13.47C238.91 13.23 238.61 12.76 238.36 11.96C238.34 11.89 237.11 7.71004 237.07 7.57004C236.81 6.69004 236.4 6.26004 235.98 6.07004C235.73 5.95004 235.48 5.92004 235.27 5.92004H234.91C234.91 5.92004 234.9 5.92004 234.9 5.93004C234.9 5.94004 234.9 5.93004 234.9 5.94004C234.97 5.95004 235.9 5.98004 236.38 7.58004C236.85 9.18004 237.42 11.09 237.61 11.76C238.02 13.22 238.56 13.69 239.41 13.69H239.82V13.68Z" fill="#232720"/>
<path d="M235.47 6.45996C235.12 6.75996 234.84 7.19996 234.67 7.82996C234.65 7.89996 232.09 16.61 232.03 16.8C231.81 17.53 231.63 18.25 230.82 18.37C230.82 18.37 230.82 18.37 230.82 18.38C230.82 18.39 230.82 18.39 230.83 18.39H230.99C230.99 18.39 231.11 18.39 231.13 18.39C231.96 18.36 232.37 18 232.72 16.8C232.98 15.92 235.33 7.89996 235.36 7.82996C235.46 7.49996 235.58 7.10996 235.75 6.77996C235.71 6.71996 235.59 6.55996 235.47 6.45996Z" fill="#232720"/>
<path d="M235.09 6.23996C234.83 6.16996 234.46 6.18996 234.12 6.45996C233.78 6.72996 233.48 7.18996 233.33 7.76996C233.31 7.83996 230.64 16.95 230.61 17.01C230.48 17.46 230.33 17.88 230.01 18.14C229.87 18.26 229.69 18.34 229.46 18.38C229.46 18.38 229.46 18.38 229.46 18.39C229.46 18.4 229.46 18.4 229.47 18.4H229.89C230.25 18.4 230.51 18.3 230.71 18.14C231.03 17.88 231.17 17.45 231.31 17.01C231.33 16.94 233.99 7.89996 234 7.83996C234.17 7.19996 234.46 6.75996 234.8 6.46996C234.9 6.37996 235 6.30996 235.11 6.24996C235.11 6.24996 235.11 6.24996 235.1 6.24996L235.09 6.23996Z" fill="#0A9679"/>
<path d="M228.75 17.61C228.63 17.44 228.53 17.23 228.46 16.98C228.36 16.62 225.56 7.09003 225.56 7.09003C225.32 6.26003 224.94 5.91003 224.25 5.91003H223.83C223.83 5.91003 223.82 5.91003 223.82 5.92003C223.82 5.93003 223.82 5.92003 223.82 5.93003C224.35 6.01003 224.66 6.37003 224.87 7.09003L227.77 16.98C227.92 17.51 228.13 17.85 228.35 18.06C228.51 17.96 228.65 17.82 228.74 17.6L228.75 17.61Z" fill="#232720"/>
<path d="M271.51 9.25994L271.2 8.39994L271.72 6.93994L272.25 8.39994L271.94 9.25994L271.82 9.20994L272.1 8.39994L271.72 7.33994L271.34 8.39994L271.63 9.20994L271.51 9.25994Z" fill="black"/>
<path d="M280.42 19.9601H272.36V19.4801C272.36 19.2101 272.16 18.9801 271.88 18.9501H271.5V17.8601H270.99V12.2901C270.22 12.2401 269.62 11.5501 269.62 10.7401C269.62 9.93005 270.26 9.20005 271.04 9.18005H272.39V9.31005H271.04C270.33 9.33005 269.75 9.97005 269.75 10.7301C269.75 11.4901 270.33 12.1401 271.04 12.1501H271.11L271.13 12.2201V17.7201H271.64V18.8201H271.89C272.24 18.8601 272.49 19.1401 272.49 19.4901V19.8301H280.28V19.4901C280.28 19.2201 280.48 18.8301 280.92 18.8301H281.14V17.7301H281.65V12.1701H281.71C282.44 12.1501 283.02 11.5101 283.02 10.7401C283.02 9.97005 282.44 9.33005 281.73 9.32005H280.36V9.19005H281.73C282.52 9.21005 283.16 9.91005 283.16 10.7501C283.16 11.5901 282.55 12.2601 281.78 12.3101V17.8801H281.27V18.9801H280.91C280.54 18.9801 280.4 19.3101 280.4 19.5101V19.9901L280.42 19.9601Z" fill="black"/>
<path d="M280.84 9.25994L280.53 8.39994L281.06 6.93994L281.58 8.39994L281.28 9.25994L281.15 9.20994L281.44 8.39994L281.06 7.33994L280.68 8.39994L280.97 9.20994L280.84 9.25994Z" fill="black"/>
<path d="M281.71 12.2599V12.1699L281.74 12.1499C281.99 12.1299 282.18 11.9099 282.18 11.6399C282.18 11.3699 281.99 11.1499 281.74 11.1299V11.0399C282.04 11.0599 282.27 11.3199 282.27 11.6399C282.27 11.8399 282.18 12.0199 282.03 12.1299C282.62 11.9799 283.06 11.3999 283.06 10.7199C283.06 10.0399 282.63 9.47994 282.04 9.31994C282.18 9.42994 282.27 9.60994 282.27 9.80994C282.27 10.1299 282.04 10.3899 281.75 10.4099V10.3199C281.99 10.2999 282.18 10.0799 282.18 9.80994C282.18 9.53994 281.99 9.31994 281.74 9.29994H281.7L281.69 9.20994L281.74 9.18994C282.51 9.20994 283.14 9.89994 283.14 10.7299C283.14 11.5599 282.51 12.2499 281.74 12.2699H281.7L281.71 12.2599Z" fill="black"/>
<path d="M271.04 12.2601C270.27 12.2401 269.64 11.5501 269.64 10.7201C269.64 9.89005 270.27 9.20005 271.04 9.18005H271.09V9.27005L271.05 9.29005C270.8 9.31005 270.61 9.53005 270.61 9.80005C270.61 10.0701 270.8 10.2901 271.05 10.3101V10.4001C270.75 10.3801 270.52 10.1201 270.52 9.80005C270.52 9.60005 270.61 9.42005 270.75 9.31005C270.17 9.47005 269.73 10.0401 269.73 10.7101C269.73 11.3801 270.17 11.9601 270.76 12.1201C270.62 12.0101 270.53 11.8301 270.53 11.6301C270.53 11.3201 270.76 11.0501 271.05 11.0301V11.1201C270.81 11.1401 270.62 11.3601 270.62 11.6301C270.62 11.9001 270.81 12.1201 271.05 12.1401H271.09V12.2401H271.04V12.2601Z" fill="black"/>
<path d="M274.38 18.1401H274.01C274.01 18.1401 273.96 18.1201 273.96 18.0901V17.7201C273.96 17.7201 273.98 17.6801 274.01 17.6801H274.38C274.38 17.6801 274.43 17.7001 274.43 17.7201V18.0901C274.43 18.0901 274.41 18.1401 274.38 18.1401ZM274.05 18.0501H274.33V17.7701H274.05V18.0501Z" fill="black"/>
<path d="M275.47 19.2H275.1C275.1 19.2 275.05 19.18 275.05 19.15V18.78C275.05 18.78 275.07 18.74 275.1 18.74H275.47C275.47 18.74 275.52 18.76 275.52 18.78V19.15C275.52 19.15 275.5 19.2 275.47 19.2ZM275.14 19.11H275.42V18.83H275.14V19.11Z" fill="black"/>
<path d="M273.28 17.08H272.91C272.91 17.08 272.86 17.06 272.86 17.03V16.66C272.86 16.66 272.88 16.62 272.91 16.62H273.28C273.28 16.62 273.33 16.64 273.33 16.66V17.03C273.33 17.03 273.31 17.08 273.28 17.08ZM272.95 16.99H273.23V16.71H272.95V16.99Z" fill="black"/>
<path d="M273.28 19.2H272.91C272.91 19.2 272.86 19.18 272.86 19.15V18.78C272.86 18.78 272.88 18.74 272.91 18.74H273.28C273.28 18.74 273.33 18.76 273.33 18.78V19.15C273.33 19.15 273.31 19.2 273.28 19.2ZM272.95 19.11H273.23V18.83H272.95V19.11Z" fill="black"/>
<path d="M277.66 19.2H277.29C277.29 19.2 277.24 19.18 277.24 19.15V18.78C277.24 18.78 277.26 18.74 277.29 18.74H277.66C277.66 18.74 277.71 18.76 277.71 18.78V19.15C277.71 19.15 277.69 19.2 277.66 19.2ZM277.33 19.11H277.61V18.83H277.33V19.11Z" fill="black"/>
<path d="M278.75 18.1401H278.38C278.38 18.1401 278.33 18.1201 278.33 18.0901V17.7201C278.33 17.7201 278.35 17.6801 278.38 17.6801H278.75C278.75 17.6801 278.79 17.7001 278.79 17.7201V18.0901C278.79 18.0901 278.77 18.1401 278.75 18.1401ZM278.42 18.0501H278.7V17.7701H278.42V18.0501Z" fill="black"/>
<path d="M279.85 17.08H279.48C279.48 17.08 279.43 17.06 279.43 17.03V16.66C279.43 16.66 279.45 16.62 279.48 16.62H279.85C279.85 16.62 279.9 16.64 279.9 16.66V17.03C279.9 17.03 279.88 17.08 279.85 17.08ZM279.52 16.99H279.8V16.71H279.52V16.99Z" fill="black"/>
<path d="M279.85 19.2H279.48C279.48 19.2 279.43 19.18 279.43 19.15V18.78C279.43 18.78 279.45 18.74 279.48 18.74H279.85C279.85 18.74 279.9 18.76 279.9 18.78V19.15C279.9 19.15 279.88 19.2 279.85 19.2ZM279.52 19.11H279.8V18.83H279.52V19.11Z" fill="black"/>
<path d="M281.73 17.8001H280.39C280.39 17.8001 280.34 17.7801 280.34 17.7501V9.22005C280.34 9.22005 280.36 9.18005 280.39 9.18005H281.73C281.73 9.18005 281.78 9.20005 281.78 9.22005V17.7501C281.78 17.7501 281.76 17.8001 281.73 17.8001ZM280.43 17.7201H281.68V9.28005H280.43V17.7201Z" fill="black"/>
<path d="M272.39 17.8099H271.05C271.05 17.8099 271 17.7899 271 17.7599V9.22994C271 9.22994 271.02 9.18994 271.05 9.18994H272.39C272.39 9.18994 272.44 9.20994 272.44 9.22994V17.7599C272.44 17.7599 272.42 17.8099 272.39 17.8099ZM271.1 17.7199H272.35V9.27994H271.1V17.7199Z" fill="black"/>
<path d="M271.77 9.23002H271.68V7.15002H271.77V9.23002Z" fill="black"/>
<path d="M272.17 8.43997H271.27V8.34998H272.17V8.43997Z" fill="black"/>
<path d="M271.89 18.92H271.57C271.57 18.92 271.52 18.9 271.52 18.87V17.75C271.52 17.75 271.54 17.71 271.57 17.71H271.89C271.89 17.71 271.94 17.73 271.94 17.75V18.87C271.94 18.87 271.92 18.92 271.89 18.92ZM271.61 18.84H271.84V17.81H271.61V18.84Z" fill="black"/>
<path d="M280.35 19.94H272.42C272.42 19.94 272.37 19.92 272.37 19.89V19.48C272.37 19.19 272.15 18.95 271.87 18.92V18.83C272.21 18.86 272.46 19.14 272.46 19.48V19.85H280.3V19.48C280.3 19.15 280.55 18.87 280.89 18.84V18.93C280.61 18.96 280.39 19.2 280.39 19.49V19.9C280.39 19.9 280.37 19.94 280.34 19.94H280.35Z" fill="black"/>
<path d="M280.13 19.7H272.64C272.64 19.7 272.59 19.68 272.59 19.65V19.48C272.59 19.08 272.27 18.73 271.87 18.7V18.61C272.32 18.64 272.68 19.03 272.68 19.48V19.61H280.08V19.48C280.08 19.03 280.43 18.65 280.88 18.61V18.7C280.48 18.73 280.17 19.07 280.17 19.48V19.65C280.17 19.65 280.15 19.7 280.13 19.7Z" fill="black"/>
<path d="M272.44 10H271.01V9.54004H272.44V10ZM271.1 9.91004H272.35V9.63004H271.1V9.91004Z" fill="black"/>
<path d="M271.92 11.1701L271.85 11.1101L272.35 10.3901L272.34 10.0901L271.76 10.9301L271.69 10.8801L272.43 9.81006V10.4101L271.92 11.1701Z" fill="black"/>
<path d="M271.02 12.47V11.87L271.53 11.11L271.6 11.16L271.1 11.89V12.19L271.69 11.34L271.76 11.39L271.02 12.47Z" fill="black"/>
<path d="M271.92 13.5401L271.85 13.4901L272.35 12.7601L272.34 12.4601L271.76 13.3101L271.69 13.2601L272.43 12.1801V12.7901L271.92 13.5401Z" fill="black"/>
<path d="M271.02 14.84V14.24L271.53 13.49L271.6 13.54L271.1 14.26V14.56L271.69 13.72L271.76 13.77L271.02 14.84Z" fill="black"/>
<path d="M271.92 15.87L271.85 15.82L272.35 15.11L272.34 14.81L271.76 15.64L271.69 15.59L272.43 14.53V15.14L271.92 15.87Z" fill="black"/>
<path d="M271.02 17.1599V16.5599L271.53 15.8199L271.6 15.8699L271.1 16.5899V16.8799L271.69 16.0499L271.76 16.1099L271.02 17.1599Z" fill="black"/>
<path d="M272.44 17.43H271.01V16.97H272.44V17.43ZM271.1 17.34H272.35V17.06H271.1V17.34Z" fill="black"/>
<path d="M272.43 17.16L271.02 15.16V14.53L272.42 16.53V17.16H272.43ZM271.11 14.82V15.14L272.35 16.88V16.56L271.11 14.82Z" fill="black"/>
<path d="M272.43 14.8401L271.02 12.8101V12.1801L272.42 14.2101V14.8401H272.43ZM271.11 12.4701V12.7901L272.35 14.5601V14.2401L271.11 12.4701Z" fill="black"/>
<path d="M272.43 12.4701L271.02 10.4401V9.81006L272.42 11.8401V12.4701H272.43ZM271.11 10.1001V10.4201L272.35 12.1901V11.8701L271.11 10.1001Z" fill="black"/>
<path d="M281.21 18.92H280.89C280.89 18.92 280.84 18.9 280.84 18.87V17.75C280.84 17.75 280.86 17.71 280.89 17.71H281.21C281.21 17.71 281.26 17.73 281.26 17.75V18.87C281.26 18.87 281.24 18.92 281.21 18.92ZM280.94 18.84H281.17V17.81H280.94V18.84Z" fill="black"/>
<path d="M280.35 12.47V11.86L280.86 11.11L280.94 11.16L280.43 11.89L280.44 12.19L281.02 11.34L281.09 11.39L280.35 12.47Z" fill="black"/>
<path d="M281.26 11.1601L281.18 11.1101L281.68 10.3901V10.0901L281.09 10.9301L281.02 10.8801L281.76 9.81006V10.4101L281.26 11.1601Z" fill="black"/>
<path d="M281.26 15.87L281.18 15.82L281.68 15.11V14.81L281.09 15.64L281.02 15.59L281.76 14.53V15.14L281.26 15.87Z" fill="black"/>
<path d="M280.35 17.1599V16.5599L280.86 15.8199L280.93 15.8699L280.43 16.5899L280.44 16.8899L281.02 16.0499L281.09 16.0999L280.35 17.1599Z" fill="black"/>
<path d="M280.35 14.84V14.24L280.86 13.49L280.94 13.54L280.43 14.26L280.44 14.56L281.02 13.72L281.09 13.77L280.35 14.84Z" fill="black"/>
<path d="M281.26 13.5401L281.18 13.4801L281.68 12.7601V12.4601L281.1 13.3101L281.02 13.2601L281.76 12.1801V12.7901L281.26 13.5401Z" fill="black"/>
<path d="M281.1 9.23002H281.01V7.15002H281.1V9.23002Z" fill="black"/>
<path d="M281.51 8.43997H280.62V8.34998H281.51V8.43997Z" fill="black"/>
<path d="M281.77 10H280.34V9.54004H281.77V10ZM280.43 9.91004H281.68V9.63004H280.43V9.91004Z" fill="black"/>
<path d="M281.76 12.4701L280.35 10.4401V9.81006L281.75 11.8401V12.4701H281.76ZM280.44 10.0901V10.4101L281.68 12.1801V11.8601L280.44 10.0901Z" fill="black"/>
<path d="M281.76 14.8401L280.35 12.8101V12.1801L281.75 14.2101V14.8401H281.76ZM280.44 12.4701V12.7901L281.68 14.5601V14.2401L280.44 12.4701Z" fill="black"/>
<path d="M281.76 17.16L280.35 15.16V14.53L281.75 16.53V17.16H281.76ZM280.44 14.82V15.14L281.68 16.89V16.57L280.44 14.82Z" fill="black"/>
<path d="M281.77 17.43H280.34V16.97H281.77V17.43ZM280.43 17.34H281.68V17.06H280.43V17.34Z" fill="black"/>
<path d="M274.39 19.5H274.02C274.02 19.5 273.97 19.48 273.97 19.45V19.16H273.68C273.68 19.16 273.63 19.14 273.63 19.11V18.74C273.63 18.74 273.65 18.7 273.68 18.7H273.97V18.41C273.97 18.41 273.99 18.37 274.02 18.37H274.39C274.39 18.37 274.44 18.39 274.44 18.41V18.7H274.73C274.73 18.7 274.78 18.72 274.78 18.74V19.11C274.78 19.11 274.76 19.16 274.73 19.16H274.44V19.45C274.44 19.45 274.42 19.5 274.39 19.5ZM274.06 19.42H274.34V19.13C274.34 19.13 274.36 19.08 274.39 19.08H274.68V18.8H274.39C274.39 18.8 274.34 18.78 274.34 18.75V18.46H274.06V18.75C274.06 18.75 274.04 18.8 274.01 18.8H273.72V19.08H274.01C274.01 19.08 274.06 19.1 274.06 19.13V19.42Z" fill="black"/>
<path d="M276.57 19.5H276.2C276.2 19.5 276.15 19.48 276.15 19.45V19.16H275.86C275.86 19.16 275.81 19.14 275.81 19.11V18.74C275.81 18.74 275.83 18.7 275.86 18.7H276.15V18.41C276.15 18.41 276.17 18.37 276.2 18.37H276.57C276.57 18.37 276.62 18.39 276.62 18.41V18.7H276.91C276.91 18.7 276.96 18.72 276.96 18.74V19.11C276.96 19.11 276.94 19.16 276.91 19.16H276.62V19.45C276.62 19.45 276.6 19.5 276.57 19.5ZM276.25 19.42H276.53V19.13C276.53 19.13 276.55 19.08 276.58 19.08H276.87V18.8H276.58C276.58 18.8 276.53 18.78 276.53 18.75V18.46H276.25V18.75C276.25 18.75 276.23 18.8 276.2 18.8H275.91V19.08H276.2C276.2 19.08 276.25 19.1 276.25 19.13V19.42Z" fill="black"/>
<path d="M273.3 16.3301H272.93C272.93 16.3301 272.88 16.3101 272.88 16.2801V15.9901H272.59C272.59 15.9901 272.54 15.9701 272.54 15.9401V15.5701C272.54 15.5701 272.56 15.5201 272.59 15.5201H272.88V15.2301C272.88 15.2301 272.9 15.1801 272.93 15.1801H273.3C273.3 15.1801 273.35 15.2001 273.35 15.2301V15.5201H273.64C273.64 15.5201 273.69 15.5401 273.69 15.5701V15.9401C273.69 15.9401 273.67 15.9901 273.64 15.9901H273.35V16.2801C273.35 16.2801 273.33 16.3301 273.3 16.3301ZM272.97 16.2401H273.25V15.9501C273.25 15.9501 273.27 15.9101 273.3 15.9101H273.59V15.6301H273.3C273.3 15.6301 273.25 15.6101 273.25 15.5801V15.2901H272.97V15.5801C272.97 15.5801 272.95 15.6301 272.92 15.6301H272.63V15.9101H272.92C272.92 15.9101 272.97 15.9301 272.97 15.9501V16.2401Z" fill="black"/>
<path d="M273.3 18.4499H272.93C272.93 18.4499 272.88 18.4299 272.88 18.3999V18.1099H272.59C272.59 18.1099 272.54 18.0899 272.54 18.0599V17.6899C272.54 17.6899 272.56 17.6499 272.59 17.6499H272.88V17.3599C272.88 17.3599 272.9 17.3199 272.93 17.3199H273.3C273.3 17.3199 273.35 17.3399 273.35 17.3599V17.6499H273.64C273.64 17.6499 273.69 17.6699 273.69 17.6899V18.0599C273.69 18.0599 273.67 18.1099 273.64 18.1099H273.35V18.3999C273.35 18.3999 273.33 18.4499 273.3 18.4499ZM272.97 18.3599H273.25V18.0699C273.25 18.0699 273.27 18.0199 273.3 18.0199H273.59V17.7399H273.3C273.3 17.7399 273.25 17.7199 273.25 17.6899V17.3999H272.97V17.6899C272.97 17.6899 272.95 17.7399 272.92 17.7399H272.63V18.0199H272.92C272.92 18.0199 272.97 18.0399 272.97 18.0699V18.3599Z" fill="black"/>
<path d="M278.76 19.5H278.39C278.39 19.5 278.34 19.48 278.34 19.45V19.16H278.05C278.05 19.16 278 19.14 278 19.11V18.74C278 18.74 278.02 18.7 278.05 18.7H278.34V18.41C278.34 18.41 278.36 18.37 278.39 18.37H278.76C278.76 18.37 278.81 18.39 278.81 18.41V18.7H279.1C279.1 18.7 279.15 18.72 279.15 18.74V19.11C279.15 19.11 279.13 19.16 279.1 19.16H278.81V19.45C278.81 19.45 278.79 19.5 278.76 19.5ZM278.43 19.42H278.71V19.13C278.71 19.13 278.73 19.08 278.76 19.08H279.05V18.8H278.76C278.76 18.8 278.71 18.78 278.71 18.75V18.46H278.43V18.75C278.43 18.75 278.41 18.8 278.38 18.8H278.09V19.08H278.38C278.38 19.08 278.43 19.1 278.43 19.13V19.42Z" fill="black"/>
<path d="M279.85 16.3301H279.48C279.48 16.3301 279.43 16.3101 279.43 16.2801V15.9901H279.14C279.14 15.9901 279.09 15.9701 279.09 15.9401V15.5701C279.09 15.5701 279.11 15.5201 279.14 15.5201H279.43V15.2301C279.43 15.2301 279.45 15.1801 279.48 15.1801H279.85C279.85 15.1801 279.9 15.2001 279.9 15.2301V15.5201H280.19C280.19 15.5201 280.24 15.5401 280.24 15.5701V15.9401C280.24 15.9401 280.22 15.9901 280.19 15.9901H279.9V16.2801C279.9 16.2801 279.88 16.3301 279.85 16.3301ZM279.53 16.2401H279.81V15.9501C279.81 15.9501 279.83 15.9101 279.86 15.9101H280.15V15.6301H279.86C279.86 15.6301 279.81 15.6101 279.81 15.5801V15.2901H279.53V15.5801C279.53 15.5801 279.51 15.6301 279.48 15.6301H279.19V15.9101H279.48C279.48 15.9101 279.53 15.9301 279.53 15.9501V16.2401Z" fill="black"/>
<path d="M279.85 18.4499H279.48C279.48 18.4499 279.43 18.4299 279.43 18.3999V18.1099H279.14C279.14 18.1099 279.09 18.0899 279.09 18.0599V17.6899C279.09 17.6899 279.11 17.6499 279.14 17.6499H279.43V17.3599C279.43 17.3599 279.45 17.3199 279.48 17.3199H279.85C279.85 17.3199 279.9 17.3399 279.9 17.3599V17.6499H280.19C280.19 17.6499 280.24 17.6699 280.24 17.6899V18.0599C280.24 18.0599 280.22 18.1099 280.19 18.1099H279.9V18.3999C279.9 18.3999 279.88 18.4499 279.85 18.4499ZM279.53 18.3599H279.81V18.0699C279.81 18.0699 279.83 18.0199 279.86 18.0199H280.15V17.7399H279.86C279.86 17.7399 279.81 17.7199 279.81 17.6899V17.3999H279.53V17.6899C279.53 17.6899 279.51 17.7399 279.48 17.7399H279.19V18.0199H279.48C279.48 18.0199 279.53 18.0399 279.53 18.0699V18.3599Z" fill="black"/>
<path d="M276.23 6.75C276.23 6.75 276.31 6.77 276.38 6.77C276.45 6.77 276.56 6.75 276.56 6.75L276.52 7.35C276.52 7.35 276.46 7.32 276.39 7.32C276.32 7.32 276.26 7.35 276.26 7.35L276.23 6.75Z" fill="black"/>
<path d="M273.33 7.47004C273.33 7.47004 273.28 7.45004 273.21 7.45004C273.15 7.45004 273.1 7.46005 273.1 7.46005C273.1 7.46005 272.96 7.03005 273.05 6.82005C273.11 6.67005 273.43 6.63005 273.71 6.62005C274.07 6.61005 274.53 6.62005 274.53 6.62005C274.53 6.62005 274.5 6.66004 274.49 6.70004C274.48 6.74004 274.47 6.78005 274.47 6.78005C274.47 6.78005 274.07 6.75005 273.89 6.76005C273.71 6.77005 273.43 6.80005 273.35 6.88005C273.28 6.94005 273.27 7.03005 273.29 7.15005C273.3 7.28005 273.33 7.46005 273.33 7.46005V7.47004Z" fill="black"/>
<path d="M274.9 7.4C274.9 7.4 274.86 7.4 274.82 7.4C274.71 7.4 274.63 7.46 274.63 7.46C274.63 7.46 274.48 6.92 274.58 6.71C274.64 6.58 274.9 6.55 275.26 6.56C275.62 6.57 276.15 6.75 276.15 6.75V6.85C276.15 6.85 275.71 6.73 275.4 6.72C275.07 6.72 274.98 6.73 274.92 6.79C274.85 6.87 274.85 7.01 274.86 7.1C274.87 7.23 274.89 7.41 274.89 7.41L274.9 7.4Z" fill="black"/>
<path d="M279.46 7.47005C279.46 7.47005 279.51 7.45005 279.58 7.45005C279.64 7.45005 279.69 7.47005 279.69 7.47005C279.69 7.47005 279.83 7.04005 279.74 6.83005C279.68 6.68005 279.36 6.64005 279.08 6.63005C278.72 6.62005 278.26 6.63005 278.26 6.63005C278.26 6.63005 278.29 6.67005 278.3 6.71005C278.31 6.75005 278.32 6.79005 278.32 6.79005C278.32 6.79005 278.73 6.77005 278.91 6.78005C279.09 6.79005 279.37 6.82005 279.45 6.90005C279.52 6.96005 279.53 7.05005 279.51 7.17005C279.5 7.30005 279.47 7.47005 279.47 7.47005H279.46Z" fill="black"/>
<path d="M277.9 7.38998C277.9 7.38998 277.94 7.37998 277.98 7.37998C278.09 7.37998 278.17 7.43998 278.17 7.43998C278.17 7.43998 278.31 6.90998 278.21 6.68998C278.15 6.55998 277.89 6.52998 277.53 6.53998C277.17 6.54998 276.64 6.72998 276.64 6.72998V6.82998C276.64 6.82998 277.08 6.70998 277.39 6.69998C277.72 6.69998 277.81 6.70998 277.87 6.76998C277.94 6.84998 277.94 6.99998 277.93 7.08998C277.93 7.22998 277.9 7.38998 277.9 7.38998Z" fill="black"/>
<path d="M275.58 9.22004H279.43L279.79 7.59004C279.71 7.54004 279.59 7.53004 279.59 7.53004C279.59 7.53004 279.44 7.51004 279.38 7.63004C279.31 7.78004 279.49 7.93004 279.49 7.93004L279.4 8.05004C279.4 8.05004 279.28 7.87004 279.14 7.84004C279.08 7.83004 278.97 7.87004 278.97 8.09004C278.97 8.27004 279.01 8.34004 279.12 8.34004C279.24 8.34004 279.42 8.13004 279.42 8.13004L279.47 8.24004L279.27 8.64004C279.27 8.64004 279.07 8.73004 278.75 8.72004C278.28 8.72004 278.23 8.63004 278.23 8.63004L278.03 8.24004L278.08 8.13004C278.08 8.13004 278.26 8.33004 278.38 8.34004C278.49 8.35004 278.54 8.27004 278.54 8.09004C278.54 7.89004 278.44 7.82004 278.36 7.84004C278.24 7.86004 278.11 8.05004 278.11 8.05004L278.02 7.93004C278.02 7.93004 278.2 7.78004 278.19 7.65004C278.17 7.47004 277.95 7.47004 277.95 7.47004C277.95 7.47004 277.76 7.47004 277.71 7.62004C277.66 7.77004 277.87 7.93004 277.87 7.93004L277.78 8.05004C277.78 8.05004 277.65 7.86004 277.52 7.84004C277.48 7.84004 277.35 7.86004 277.35 8.10004C277.35 8.27004 277.4 8.34004 277.5 8.34004C277.62 8.34004 277.8 8.13004 277.8 8.13004L277.85 8.24004L277.65 8.63004C277.65 8.63004 277.6 8.72004 277.17 8.72004C276.73 8.72004 276.69 8.66004 276.69 8.66004L276.46 8.22004L276.52 8.11004C276.52 8.11004 276.69 8.33004 276.81 8.33004C276.92 8.33004 276.99 8.26004 277 8.09004C277.01 7.88004 276.89 7.80004 276.81 7.81004C276.69 7.84004 276.52 8.02004 276.52 8.02004L276.45 7.91004C276.45 7.91004 276.66 7.71004 276.61 7.56004C276.56 7.42004 276.38 7.42004 276.38 7.42004C276.38 7.42004 276.19 7.43004 276.15 7.56004C276.1 7.71004 276.31 7.91004 276.31 7.91004L276.24 8.02004C276.24 8.02004 276.05 7.82004 275.94 7.81004C275.86 7.81004 275.76 7.90004 275.76 8.06004C275.76 8.26004 275.84 8.33004 275.95 8.33004C276.07 8.33004 276.25 8.11004 276.25 8.11004L276.31 8.22004L276.08 8.65004C276.08 8.65004 276.08 8.72004 275.58 8.72004C275.15 8.72004 275.1 8.63004 275.1 8.63004L274.9 8.24004L274.95 8.13004C274.95 8.13004 275.14 8.33004 275.25 8.34004C275.35 8.34004 275.4 8.27004 275.4 8.10004C275.4 7.86004 275.28 7.83004 275.23 7.84004C275.1 7.86004 274.97 8.05004 274.97 8.05004L274.88 7.93004C274.88 7.93004 275.09 7.77004 275.04 7.62004C274.99 7.47004 274.8 7.47004 274.8 7.47004C274.8 7.47004 274.58 7.47004 274.56 7.65004C274.54 7.78004 274.73 7.93004 274.73 7.93004L274.64 8.05004C274.64 8.05004 274.51 7.87004 274.39 7.84004C274.31 7.82004 274.21 7.89004 274.21 8.09004C274.21 8.27004 274.26 8.35004 274.37 8.34004C274.49 8.33004 274.67 8.13004 274.67 8.13004L274.72 8.24004L274.52 8.63004C274.52 8.63004 274.48 8.71004 274 8.72004C273.69 8.72004 273.48 8.64004 273.48 8.64004L273.28 8.24004L273.33 8.13004C273.33 8.13004 273.52 8.34004 273.63 8.34004C273.74 8.34004 273.78 8.27004 273.78 8.09004C273.78 7.87004 273.67 7.83004 273.61 7.84004C273.47 7.87004 273.35 8.05004 273.35 8.05004L273.26 7.93004C273.26 7.93004 273.44 7.78004 273.37 7.63004C273.31 7.51004 273.16 7.53004 273.16 7.53004C273.16 7.53004 273.03 7.53004 272.95 7.59004L273.32 9.22004H277.17" fill="black"/>
<path d="M276.4 6.65001C276.71 6.65001 276.97 6.40001 276.97 6.08001C276.97 5.76001 276.72 5.51001 276.4 5.51001C276.08 5.51001 275.83 5.76001 275.83 6.08001C275.83 6.40001 276.08 6.65001 276.4 6.65001Z" fill="black"/>
<path d="M276.4 6.69998C276.06 6.69998 275.79 6.42998 275.79 6.08998C275.79 5.74998 276.06 5.47998 276.4 5.47998C276.74 5.47998 277.01 5.74998 277.01 6.08998C277.01 6.42998 276.74 6.69998 276.4 6.69998ZM276.4 5.55998C276.11 5.55998 275.88 5.78998 275.88 6.07998C275.88 6.36998 276.12 6.59998 276.4 6.59998C276.68 6.59998 276.92 6.36998 276.92 6.07998C276.92 5.78998 276.68 5.55998 276.4 5.55998Z" fill="black"/>
<path d="M277.3 17.6C277.3 17.6 277.23 17.66 277.19 17.7H277.3V17.6Z" fill="black"/>
<path d="M275.58 17.7C275.58 17.7 275.51 17.64 275.48 17.61V17.7H275.58Z" fill="black"/>
<path d="M278.39 16.47C278.34 16.53 278.29 16.59 278.25 16.64H278.39V16.47Z" fill="black"/>
<path d="M274.52 16.64C274.47 16.59 274.43 16.54 274.39 16.48V16.64H274.52Z" fill="black"/>
<path d="M273.28 14.95H272.91C272.91 14.95 272.86 14.93 272.86 14.9V14.53C272.86 14.53 272.88 14.49 272.91 14.49H273.18C273.18 14.49 273.21 14.5 273.22 14.52C273.25 14.59 273.28 14.66 273.32 14.73V14.91C273.32 14.91 273.3 14.96 273.28 14.96V14.95ZM272.95 14.86H273.23V14.75C273.23 14.75 273.18 14.64 273.15 14.58H272.95V14.86Z" fill="black"/>
<path d="M279.85 14.95H279.48C279.48 14.95 279.43 14.93 279.43 14.9V14.78C279.47 14.68 279.51 14.6 279.55 14.51C279.55 14.49 279.57 14.48 279.59 14.48H279.85C279.85 14.48 279.9 14.5 279.9 14.52V14.89C279.9 14.89 279.88 14.94 279.86 14.94L279.85 14.95ZM279.52 14.86H279.8V14.58H279.61C279.58 14.65 279.54 14.73 279.51 14.8V14.86H279.52Z" fill="black"/>
<path d="M274.39 17.39H274.02C274.02 17.39 273.97 17.37 273.97 17.34V17.05H273.68C273.68 17.05 273.63 17.03 273.63 17V16.63C273.63 16.63 273.65 16.59 273.68 16.59H273.97V16.3C273.97 16.3 273.99 16.26 274.02 16.26H274.25C274.25 16.26 274.28 16.26 274.28 16.28C274.33 16.34 274.37 16.4 274.42 16.45C274.42 16.45 274.42 16.47 274.42 16.48V16.6H274.51C274.51 16.6 274.53 16.6 274.54 16.62C274.61 16.7 274.67 16.77 274.74 16.84C274.74 16.84 274.75 16.86 274.75 16.87V17.02C274.75 17.02 274.73 17.07 274.7 17.07H274.41V17.36C274.41 17.36 274.39 17.4 274.37 17.4L274.39 17.39ZM274.06 17.3H274.34V17.01C274.34 17.01 274.36 16.97 274.39 16.97H274.68V16.88C274.62 16.82 274.56 16.75 274.51 16.68H274.4C274.4 16.68 274.35 16.66 274.35 16.63V16.49C274.35 16.49 274.27 16.39 274.23 16.35H274.06V16.64C274.06 16.64 274.04 16.69 274.01 16.69H273.72V16.97H274.01C274.01 16.97 274.06 16.99 274.06 17.01V17.3Z" fill="black"/>
<path d="M275.48 18.4499H275.11C275.11 18.4499 275.06 18.4299 275.06 18.3999V18.1099H274.77C274.77 18.1099 274.72 18.0899 274.72 18.0599V17.6899C274.72 17.6899 274.74 17.6499 274.77 17.6499H275.06V17.3599C275.06 17.3599 275.08 17.3199 275.11 17.3199H275.22C275.22 17.3199 275.24 17.3199 275.25 17.3299C275.34 17.4199 275.43 17.4999 275.52 17.5699C275.52 17.5699 275.54 17.5899 275.54 17.5999V17.6399H275.59C275.59 17.6399 275.61 17.6399 275.62 17.6499C275.7 17.7199 275.78 17.7799 275.85 17.8399C275.86 17.8399 275.87 17.8599 275.87 17.8699V18.0499C275.87 18.0499 275.85 18.0999 275.82 18.0999H275.53V18.3799C275.53 18.3799 275.51 18.4299 275.48 18.4299V18.4499ZM275.15 18.3599H275.43V18.0699C275.43 18.0699 275.45 18.0199 275.48 18.0199H275.77V17.9099C275.71 17.8599 275.64 17.7999 275.57 17.7399H275.49C275.49 17.7399 275.44 17.7199 275.44 17.6899V17.6199C275.36 17.5499 275.28 17.4799 275.2 17.3999H275.16V17.6899C275.16 17.6899 275.14 17.7399 275.11 17.7399H274.82V18.0199H275.11C275.11 18.0199 275.16 18.0399 275.16 18.0699V18.3599H275.15Z" fill="black"/>
<path d="M273.05 14.2401H272.93C272.93 14.2401 272.88 14.2201 272.88 14.1901V13.9001H272.59C272.59 13.9001 272.54 13.8801 272.54 13.8501V13.4801C272.54 13.4801 272.56 13.4301 272.59 13.4301H272.85C272.85 13.4301 272.89 13.4401 272.89 13.4601C272.95 13.7201 273.01 13.9601 273.08 14.1601C273.08 14.1701 273.08 14.1901 273.08 14.2001C273.08 14.2201 273.06 14.2201 273.04 14.2201L273.05 14.2401ZM272.64 13.8201H272.89C272.87 13.7301 272.84 13.6401 272.82 13.5401H272.64V13.8201Z" fill="black"/>
<path d="M277.67 18.4499H277.3C277.3 18.4499 277.25 18.4299 277.25 18.3999V18.1099H276.96C276.96 18.1099 276.91 18.0899 276.91 18.0599V17.8699C276.91 17.8699 276.91 17.8399 276.93 17.8399C277 17.7799 277.07 17.7199 277.15 17.6499C277.15 17.6499 277.17 17.6399 277.18 17.6399H277.25V17.5899C277.25 17.5899 277.25 17.5699 277.27 17.5599C277.35 17.4899 277.44 17.4099 277.52 17.3299C277.52 17.3299 277.54 17.3199 277.55 17.3199H277.66C277.66 17.3199 277.71 17.3399 277.71 17.3599V17.6499H278C278 17.6499 278.04 17.6699 278.04 17.6899V18.0599C278.04 18.0599 278.02 18.1099 278 18.1099H277.71V18.3999C277.71 18.3999 277.69 18.4499 277.66 18.4499H277.67ZM277.34 18.3599H277.62V18.0699C277.62 18.0699 277.64 18.0199 277.67 18.0199H277.96V17.7399H277.67C277.67 17.7399 277.62 17.7199 277.62 17.6899V17.3999H277.57C277.49 17.4699 277.41 17.5499 277.34 17.6099V17.6799C277.34 17.6799 277.32 17.7299 277.29 17.7299H277.2C277.13 17.7899 277.07 17.8399 277.01 17.8899V18.0099H277.3C277.3 18.0099 277.35 18.0299 277.35 18.0599V18.3499L277.34 18.3599Z" fill="black"/>
<path d="M278.76 17.39H278.39C278.39 17.39 278.34 17.37 278.34 17.34V17.05H278.05C278.05 17.05 278 17.03 278 17V16.84C278 16.84 278 16.82 278.01 16.81C278.07 16.74 278.13 16.67 278.2 16.6C278.2 16.6 278.22 16.58 278.23 16.58H278.33V16.45C278.33 16.45 278.33 16.43 278.34 16.42C278.38 16.37 278.43 16.31 278.47 16.26C278.47 16.25 278.49 16.24 278.51 16.24H278.75C278.75 16.24 278.8 16.26 278.8 16.28V16.57H279.09C279.09 16.57 279.14 16.59 279.14 16.61V16.98C279.14 16.98 279.12 17.03 279.09 17.03H278.8V17.32C278.8 17.32 278.78 17.37 278.76 17.37V17.39ZM278.43 17.3H278.71V17.01C278.71 17.01 278.73 16.97 278.76 16.97H279.05V16.69H278.76C278.76 16.69 278.71 16.67 278.71 16.64V16.35H278.53C278.53 16.35 278.46 16.44 278.42 16.48V16.63C278.42 16.63 278.4 16.68 278.37 16.68H278.25C278.2 16.74 278.14 16.8 278.09 16.87V16.97H278.38C278.38 16.97 278.43 16.99 278.43 17.01V17.3Z" fill="black"/>
<path d="M279.85 14.24H279.72C279.72 14.24 279.69 14.24 279.68 14.22C279.67 14.2 279.67 14.19 279.68 14.18C279.75 13.98 279.81 13.75 279.87 13.48C279.87 13.46 279.89 13.45 279.91 13.45H280.18C280.18 13.45 280.23 13.47 280.23 13.5V13.87C280.23 13.87 280.21 13.92 280.18 13.92H279.89V14.21C279.89 14.21 279.87 14.25 279.85 14.25V14.24ZM279.88 13.82H280.14V13.54H279.95C279.93 13.64 279.9 13.73 279.88 13.82Z" fill="black"/>
<path d="M276.38 18.3701H276.36C276.36 18.3701 274.16 16.9501 273.11 14.5001C272.44 12.9401 272.39 9.27005 272.39 9.23005V9.18005H280.38V9.23005C280.38 9.23005 280.32 12.9401 279.66 14.5001C278.61 16.9501 276.43 18.3501 276.41 18.3601H276.38V18.3701ZM272.48 9.27005C272.48 9.70005 272.58 13.0101 273.2 14.4601C274.18 16.7501 276.15 18.1101 276.39 18.2601C276.63 18.1001 278.6 16.7401 279.58 14.4601C280.2 13.0101 280.29 9.70005 280.3 9.27005H272.49H272.48Z" fill="black"/>
<path d="M276.34 10.38L276.05 10.35C275.96 10.34 275.9 10.3 275.9 10.3C275.88 10.3 275.85 10.33 275.86 10.36C275.86 10.36 275.95 10.4 276.04 10.42L276.39 10.45L276.34 10.38Z" fill="black"/>
<path d="M273.02 9.53003C273.02 9.53003 272.99 9.94003 273.06 10.2C273.13 10.48 273.32 10.86 273.32 10.86C273.32 10.86 273.42 10.74 273.63 10.55C273.84 10.36 274.08 10.38 274.08 10.38H274.44V10.02H274.08C274.08 10.02 273.73 10.01 273.53 9.89003C273.32 9.77003 273.02 9.53003 273.02 9.53003Z" fill="black"/>
<path d="M276.72 10.0601C276.72 10.0601 276.73 10.0601 276.74 10.0601C276.77 10.0601 276.8 10.0701 276.84 10.0801" fill="black"/>
<path d="M276.55 5.41998V4.98998H276.88V4.69998H276.55V4.34998H276.25V4.70998H275.92V4.99998H276.25V5.42998C276.25 5.42998 276.35 5.40998 276.41 5.40998C276.47 5.40998 276.52 5.40998 276.57 5.42998L276.55 5.41998Z" fill="black"/>
<path d="M274.5 7.18005C274.5 7.18005 274.26 7.22005 273.95 7.35005C273.66 7.47005 273.48 7.62005 273.48 7.62005C273.48 7.62005 273.5 7.68005 273.48 7.73005C273.48 7.73005 273.71 7.55005 274 7.43005C274.27 7.32005 274.51 7.27005 274.51 7.27005V7.18005H274.5Z" fill="black"/>
<path d="M274.94 7.12004V7.21004C274.94 7.21004 275.58 7.14004 276.16 7.13004V7.04004C275.81 7.04004 275.18 7.08004 274.94 7.11004V7.12004Z" fill="black"/>
<path d="M278.29 7.18004C278.29 7.18004 278.54 7.21004 278.84 7.34004C279.13 7.46004 279.29 7.59004 279.29 7.59004C279.29 7.59004 279.27 7.64004 279.27 7.69004C279.27 7.69004 279.08 7.53004 278.79 7.41004C278.52 7.30004 278.28 7.26004 278.28 7.26004L278.3 7.17004L278.29 7.18004Z" fill="black"/>
<path d="M277.85 7.12005V7.21005C277.85 7.21005 277.2 7.14005 276.61 7.14005V7.05005C276.96 7.05005 277.6 7.10005 277.85 7.12005Z" fill="black"/>
<path d="M276.73 10.14C276.73 10.14 276.8 10.14 276.81 10.14C276.82 10.14 276.83 10.09 276.83 10.09L276.71 10.07C276.71 10.07 276.71 10.14 276.73 10.14ZM279.56 12.42C279.56 12.42 279.4 12.46 279.29 12.41C279.26 12.39 279.12 12.36 279.1 12.36C279 12.36 278.91 12.39 278.91 12.39C278.91 12.39 279.02 12.18 279.31 11.92C279.6 11.67 279.98 11.13 279.87 10.65C279.76 10.17 279.5 10.02 279.17 10.02C278.8 10.02 278.61 10.12 278.49 10.4C278.44 10.51 278.47 10.62 278.44 10.75C278.44 10.77 278.36 10.89 278.29 10.99C278.23 11.07 278.13 11.39 278.13 11.39H278.17L278.45 11.1L278.47 11.26C278.47 11.26 278.34 11.43 278.15 11.66C278.03 11.81 277.86 12.15 277.83 12.27L277.9 12.25C277.9 12.25 278.04 12.04 278.44 11.75C278.57 11.65 278.79 11.51 278.83 11.37C278.88 11.23 278.83 11.07 278.83 11.07C278.83 11.07 278.94 11.16 278.98 11.29C279.02 11.43 279 11.54 279 11.54C279 11.54 279.12 11.21 279.1 11.03C279.06 10.76 278.99 10.7 278.87 10.67C278.84 10.67 278.72 10.66 278.72 10.66C278.72 10.66 278.63 10.35 278.94 10.25C279.15 10.18 279.41 10.17 279.59 10.46C279.77 10.76 279.68 11.13 279.53 11.31C279.37 11.51 279.09 11.77 278.56 12.13C278.18 12.39 277.87 12.73 277.92 13.09C277.98 13.55 278.36 14.1 278.55 14.38C278.73 14.66 278.83 15 278.66 15.24C278.5 15.47 278.12 15.56 277.88 15.39C277.68 15.25 277.44 14.85 277.24 14.31C277.08 13.87 276.88 13.62 276.88 13.62L276.92 12.1L277.03 12.15C277.03 12.15 277.04 12 277.09 11.88C277.15 11.73 277.35 11.47 277.47 11.17C277.59 10.87 277.59 10.46 277.59 10.46C277.59 10.46 277.67 10.39 277.72 10.32V10.18L277.6 10.1L277.83 9.74C277.79 9.72 277.68 9.77 277.68 9.77C277.68 9.77 277.58 9.65 277.52 9.77C277.47 9.86 277.57 9.89 277.57 9.89L277.52 9.96L277.27 9.9L277.25 9.81C277.25 9.81 277.36 9.89 277.4 9.77C277.43 9.67 277.3 9.67 277.3 9.67C277.3 9.67 277.34 9.6 277.23 9.57C277.13 9.54 277.12 9.63 277.12 9.63C277.12 9.63 277.01 9.56 276.99 9.66C276.97 9.76 277.08 9.76 277.08 9.76L277.01 9.83L276.77 9.78L276.74 9.69C276.74 9.69 276.87 9.69 276.86 9.58C276.84 9.45 276.71 9.52 276.71 9.52C276.71 9.52 276.67 9.44 276.6 9.46L276.64 9.84L277.48 10.04L277.38 10.08L276.62 9.9L276.36 10.09L276.39 10.29L276.51 10.45L276.41 10.62L276.81 10.66L276.77 10.76C276.77 10.76 276.59 10.78 276.28 10.86C276.2 10.88 275.69 11.23 275.55 11.36C275.47 11.44 275.42 11.56 275.42 11.56L274.83 11.26L274.8 11.14L274.67 11.18L274.53 11.1C274.53 11.1 274.66 10.95 274.71 10.8C274.75 10.68 274.68 10.51 274.68 10.51L274.63 10.48V10.7L274.48 10.75L274.39 10.99L274.34 10.96V9.84H274.14V10.84C274.14 10.84 274.12 10.81 273.98 10.8C273.84 10.79 273.73 10.85 273.73 10.85L273.68 10.9L273.9 10.93L273.94 11.07L274.14 11.12V11.24C274.14 11.24 274.05 11.22 273.94 11.32C273.81 11.43 273.77 11.59 273.77 11.59V11.65C273.77 11.65 273.88 11.51 273.91 11.51C273.99 11.53 274.01 11.53 274.07 11.57L274.14 11.51V13.05C274.14 13.05 274.03 13.01 273.95 13.04C273.9 13.05 273.85 13.06 273.81 13.08L273.78 13.14C273.78 13.14 273.93 13.1 273.98 13.15C274.03 13.19 274 13.23 274.03 13.27C274.04 13.29 274.1 13.31 274.11 13.34V13.59L273.99 13.78V13.88L274.13 13.76V14.3H274.33V13.8H274.42L274.67 13.54C274.67 13.54 274.81 13.54 274.84 13.61C274.86 13.65 274.84 13.73 274.87 13.77C274.9 13.78 274.92 13.79 274.92 13.79L276.21 12.25L275.68 12.88L275.78 13.15L276.03 13.42L276.11 13.92L275.47 14.22C275.47 14.22 275.41 14.36 275.37 14.62C275.32 14.88 275.3 15.07 275.3 15.07L275.35 15.28L274.58 15.2L274.52 14.99C274.52 14.99 274.62 14.88 274.69 14.73C274.76 14.58 274.68 14.38 274.68 14.38L274.63 14.32L274.61 14.55L274.48 14.58L274.45 14.82H274.38C274.38 14.82 274.33 14.66 274.17 14.57C274.01 14.47 273.84 14.51 273.84 14.51L273.81 14.55L274.04 14.62L274 14.77L274.26 14.88L274.23 14.94L273.99 14.98L273.96 15.06H273.74L273.76 15.09C273.76 15.09 273.86 15.18 274.03 15.18C274.2 15.18 274.3 15.11 274.3 15.11L274.4 15.35L274.28 15.47L274.32 15.51H274.43L275.29 15.68L275.45 15.82L275.73 15.69C275.73 15.69 275.73 15.55 275.78 15.48C275.81 15.43 275.88 15.34 275.93 15.28C275.93 15.27 275.8 15.05 275.78 15C275.72 14.87 275.71 14.53 275.72 14.47C275.75 14.32 276.23 13.91 276.23 13.91L276.36 13.64L276.42 13.67L276.29 13.96C275.99 14.2 275.8 14.43 275.79 14.5C275.79 14.54 275.79 14.86 275.85 14.98C275.87 15.03 275.99 15.23 275.99 15.23C275.99 15.23 276.11 15.4 276.29 15.57C276.47 15.74 276.55 15.84 276.59 15.99C276.65 16.23 276.67 16.59 276.66 16.86C276.66 16.97 276.66 17.07 276.66 17.07L276.47 17.11C276.47 17.11 276.32 16.85 276.25 16.82C276.1 16.75 275.98 16.7 275.98 16.7L275.92 16.72L276.08 16.85L276.06 17.05L276.32 17.21C276.32 17.21 276.17 17.27 276.1 17.27C275.95 17.27 275.83 17.52 275.83 17.52V17.57L276 17.48L276.15 17.56L276.37 17.38L276.42 17.42C276.42 17.42 276.38 17.58 276.41 17.72C276.44 17.85 276.53 17.98 276.53 17.98H276.6L276.54 17.75L276.68 17.63L276.62 17.41L276.82 17.27L277 17.41L277.03 17.38C276.99 17.05 277.1 16.27 277.1 16.27C277.1 16.27 277.19 16.18 277.2 16.11C277.2 16.05 277.2 15.89 277.2 15.84C277.15 15.79 277.11 15.67 277.11 15.67C277.11 15.67 277.03 15.32 277.06 14.93C277.06 14.84 277.06 14.76 277.06 14.68C277.11 14.76 277.31 15.1 277.48 15.31C277.79 15.69 278.17 15.76 278.38 15.7C279.21 15.46 279.01 14.68 279.01 14.68C278.69 13.89 278.75 13.76 278.75 13.76L279.3 13.53V13.49H279.09L278.85 13.44H278.7V13.36L279.48 13.01V12.97L279.32 12.99L279.01 12.92L278.74 12.98L278.77 12.84L279.64 12.44L279.56 12.42ZM277.51 10.2L277.58 10.23V10.31L277.49 10.38L277.47 10.3L277.41 10.24L277.51 10.2ZM274.31 13.57V13.35C274.31 13.35 274.46 13.34 274.46 13.42C274.46 13.5 274.31 13.57 274.31 13.57ZM274.8 13.28L274.65 13.18V12.83L274.46 12.53H274.39L274.48 12.72L274.39 12.88L274.47 13.09L274.4 13.16L274.28 13.01V11.27L274.44 11.36L274.39 11.46L274.48 11.53L274.55 11.5L275.29 12.06L275.24 12.23L275.46 12.21L274.79 13.27L274.8 13.28ZM275.85 11.44C275.79 11.47 275.58 11.85 275.58 11.85L275.52 11.82C275.56 11.75 275.74 11.43 275.81 11.39C275.88 11.35 276.12 11.33 276.28 11.31V11.37C276.28 11.37 275.93 11.4 275.85 11.44ZM276.52 10.09L276.66 9.99L277.11 10.09L277.13 10.16C277.08 10.14 276.91 10.1 276.91 10.1C276.89 10.18 276.85 10.19 276.84 10.2C276.83 10.2 276.75 10.21 276.72 10.2C276.67 10.18 276.67 10.08 276.67 10.08C276.61 10.1 276.56 10.14 276.56 10.14L276.53 10.1L276.52 10.09ZM276.59 10.47L276.55 10.36L276.87 10.4L276.89 10.51L276.58 10.47H276.59Z" fill="black"/>
<path d="M285.84 9.16003H288.61C290.21 9.16003 291.03 9.47003 291.03 11.45C291.03 13.43 290.19 13.76 288.6 13.76H287.49V15.37H285.85V9.16003H285.84ZM288.61 12.46C288.97 12.46 289.38 12.43 289.38 11.47C289.38 10.51 288.96 10.49 288.6 10.49H287.49V12.46H288.61Z" fill="black"/>
<path d="M291.54 12.2701C291.54 9.54006 292.75 9.06006 294.6 9.06006C296.45 9.06006 297.65 9.52006 297.65 12.2501C297.65 14.9801 296.45 15.4701 294.59 15.4701C292.73 15.4701 291.54 14.9901 291.54 12.2701ZM295.92 12.5101V12.0201C295.92 10.8501 295.62 10.4601 294.59 10.4601C293.56 10.4601 293.27 10.8301 293.27 12.0001V12.4901C293.27 13.6601 293.57 14.1001 294.6 14.1001C295.64 14.1001 295.92 13.6801 295.92 12.5101Z" fill="black"/>
<path d="M298.42 9.16003H300.07V13.99H302.86V15.37H298.41V9.16003H298.42Z" fill="black"/>
<path d="M303.54 9.16003H305.2V15.37H303.54V9.16003Z" fill="black"/>
<path d="M307.87 10.59H305.9V9.16003H311.51V10.59H309.53V15.37H307.88V10.59H307.87Z" fill="black"/>
<path d="M312.2 9.16003H313.86V15.37H312.2V9.16003Z" fill="black"/>
<path d="M314.88 9.16003H319.33V10.59H316.54V11.54H318.79V12.97H316.54V13.99H319.33V15.37H314.88V9.16003Z" fill="black"/>
<path d="M321.78 10.59H319.81V9.16003H325.42V10.59H323.44V15.37H321.79V10.59H321.78Z" fill="black"/>
<path d="M349.36 18.4901C348.3 18.4501 347.43 18.1601 346.75 17.6201C346.62 17.5201 346.31 17.2101 346.21 17.0801C345.93 16.7301 345.75 16.4001 345.62 16.0201C345.24 14.8701 345.43 13.3601 346.19 11.7001C346.83 10.2801 347.83 8.88006 349.56 6.93006C349.82 6.64006 350.58 5.81006 350.58 5.81006C350.58 5.81006 350.54 5.88006 350.49 5.97006C350.04 6.72006 349.65 7.61006 349.44 8.38006C349.1 9.61006 349.14 10.6701 349.56 11.5001C349.85 12.0701 350.34 12.5601 350.89 12.8301C351.86 13.3001 353.27 13.3401 355.01 12.9401C355.13 12.9101 361.03 11.3501 368.13 9.46006C375.23 7.57006 381.03 6.03006 381.04 6.03006C381.04 6.03006 364.55 13.0901 355.99 16.7501C354.63 17.3301 354.27 17.4801 353.63 17.7001C352 18.2701 350.54 18.5501 349.36 18.5001V18.4901Z" fill="#010101"/>
<path d="M413.64 10.65V17.11C413.64 17.73 413.47 18.21 413.12 18.55C412.77 18.89 412.24 19.06 411.53 19.06C410.82 19.06 410.29 18.89 409.94 18.55C409.59 18.21 409.42 17.73 409.42 17.11V0L404.95 1.47V2.22C406.78 2.35 407.15 2.25 407.15 4.49V17.46C407.15 17.97 407.01 18.36 406.72 18.64C406.43 18.92 406 19.06 405.42 19.06H405.31C405.31 19.06 405.45 19.06 405.42 19.06C404.09 19.05 403.48 18.19 402.77 17.15L399.1 11.88L401.11 9.97C402.27 8.88 402.98 7.98 404.68 7.93V7.18H398.86V7.93C399.74 7.96 400.18 8.21 400.18 8.83C400.18 9.5 399.43 10.17 399.02 10.59L393.54 16.11V16.27C393.54 18.7 393.54 18.85 391.78 19.06V19.81H397.59V19.06C395.81 18.85 395.81 18.7 395.81 16.27V14.95L397.51 13.35L399.91 16.73C400.14 17.12 400.71 17.84 400.71 18.31C400.71 18.93 400.04 19.06 399.32 19.06V19.81H417.64V19.06C415.91 18.83 415.91 18.67 415.91 16.24V10.14C415.91 8.6 416 7.83 418.06 7.83C420.31 7.84 422.17 8.36 422.22 11.11C422.22 14.01 420.27 14.51 417.93 14.51H417.24V15.17H419.18C421.82 15.17 424.49 14.41 424.49 11.23C424.49 11.19 424.49 11.15 424.49 11.11C424.49 7.93 421.83 7.17 419.18 7.17H411.87V7.83C413.63 8.06 413.63 8.22 413.63 10.65" fill="black"/>
<path d="M443.54 1.71997H464.41V22.59H443.54V1.71997Z" fill="#e4e4e7"/>
<path d="M463.02 10.39C462.98 11.04 462.78 11.85 462.6 12.39C461.87 14.57 461.02 15.92 459.05 15.92C458.47 15.92 457.44 15.77 457.06 14.73L456.97 14.48L456.81 14.68C456.19 15.46 455.28 15.91 454.3 15.92C453.55 15.92 452.94 15.67 452.55 15.19L452.44 15.06L452.33 15.19C451.91 15.65 451.19 15.91 450.34 15.91C449.67 15.91 449.1 15.68 448.72 15.27L448.62 15.16L448.51 15.27C448.09 15.7 447.42 15.91 446.59 15.89C445.58 15.87 444.96 15.3 444.94 14.38C444.91 12.96 446.29 9.95997 446.86 9.04997C447.23 8.43997 447.74 8.14997 448.42 8.14997C448.88 8.14997 449.2 8.24997 449.38 8.44997C449.55 8.62997 449.58 8.77997 449.6 9.14997L449.62 9.61997L449.87 9.21997C450.48 8.23997 451.48 8.10997 452.47 8.10997C453.16 8.10997 453.76 8.35997 454.01 8.75997L454.1 8.89997L454.23 8.78997C454.74 8.34997 455.46 8.10997 456.26 8.10997C457.13 8.10997 457.77 8.32997 458.15 8.75997C458.24 8.85997 458.29 8.92997 458.37 9.08997L458.47 9.28997L458.62 9.11997C459.17 8.45997 459.93 8.12997 460.87 8.12997C461.61 8.12997 462.18 8.32997 462.55 8.71997C463.01 9.20997 463.08 9.89997 463.05 10.39M443.54 22.59H464.41V1.71997H443.54V22.59Z" fill="#e4e4e7"/>
<path d="M463.6 11.19C463.51 11.95 462.99 13.36 462.72 13.92C461.99 15.43 461.01 16.59 459.13 16.59C458.12 16.59 457.3 16.27 456.81 15.65C456.1 16.27 455.22 16.6 454.28 16.6C453.55 16.6 452.91 16.39 452.42 16C451.88 16.38 451.15 16.59 450.34 16.59C449.66 16.59 449.06 16.4 448.58 16.06C448.05 16.41 447.36 16.58 446.55 16.56C445.2 16.53 444.27 15.67 444.24 14.43C444.2 12.78 445.59 9.75997 446.25 8.71997C446.74 7.91997 447.49 7.47997 448.4 7.47997C449.39 7.47997 449.75 7.75997 449.93 8.12997C450.7 7.47997 451.71 7.43997 452.44 7.43997C453.24 7.43997 453.74 7.64997 454.17 7.98997C454.76 7.63997 455.43 7.44997 456.24 7.44997C457.27 7.44997 458.03 7.68997 458.57 8.21997C459.19 7.69997 459.97 7.46997 460.84 7.46997C461.99 7.46997 462.75 7.88997 463.2 8.50997C463.83 9.37997 463.72 10.26 463.6 11.19ZM443.54 22.59H464.41V1.71997H443.54V22.59Z" fill="#231F20"/>
<path d="M463.59 7.44995C463.31 7.44995 463.08 7.67995 463.08 7.95995C463.08 8.23995 463.31 8.46995 463.58 8.46995C463.86 8.46995 464.09 8.23995 464.09 7.95995C464.09 7.67995 463.86 7.44995 463.58 7.44995M463.59 7.54995C463.82 7.54995 464 7.72995 464 7.95995C464 8.18995 463.82 8.36995 463.59 8.36995C463.36 8.36995 463.18 8.18995 463.18 7.95995C463.18 7.72995 463.36 7.54995 463.59 7.54995ZM463.85 8.21995L463.79 8.10995C463.74 8.01995 463.72 7.99995 463.68 7.98995C463.77 7.97995 463.82 7.91995 463.82 7.83995C463.82 7.75995 463.77 7.68995 463.65 7.68995H463.39V8.20995H463.5V7.99995H463.52C463.52 7.99995 463.59 7.99995 463.61 8.02995C463.63 8.04995 463.66 8.09995 463.68 8.12995L463.72 8.21995H463.85ZM463.5 7.91995V7.77995H463.6C463.67 7.77995 463.71 7.79995 463.71 7.84995C463.71 7.88995 463.69 7.91995 463.61 7.91995H463.5ZM460.98 10.35C460.96 10.89 460.17 13.05 459.89 13.53C459.77 13.74 459.63 13.91 459.38 13.91C459.16 13.91 459.07 13.76 459.06 13.58C459.04 13.09 459.94 10.65 460.25 10.25C460.39 10.04 460.54 10.01 460.71 10.01C460.96 10.01 460.99 10.2 460.98 10.35ZM462.42 11.23C462.24 12.13 461.84 13.18 461.4 13.97C460.68 15.26 459.81 15.44 459.05 15.43C458.29 15.43 457.43 15.14 457.43 13.97C457.43 13.13 457.79 11.94 458.1 11.16C458.64 9.74995 459.19 8.59995 460.92 8.61995C462.94 8.63995 462.58 10.44 462.42 11.23ZM455.99 9.97995C455.7 9.97995 455.51 10.17 455.36 10.37C455.05 10.81 454.37 12.58 454.26 13.3C454.19 13.8 454.4 13.9 454.64 13.9C455.02 13.9 455.44 13.5 455.58 12.85C455.58 12.85 454.86 12.83 455.06 12.2C455.25 11.58 455.62 11.45 456.22 11.43C457.41 11.38 457.29 12.26 457.2 12.73C456.89 14.25 455.81 15.47 454.28 15.47C453.23 15.47 452.58 14.89 452.58 13.82C452.58 13.06 452.96 11.87 453.26 11.17C453.9 9.67995 454.56 8.63995 456.27 8.63995C457.29 8.63995 458.1 9.00995 457.98 9.95995C457.89 10.66 457.54 11.07 456.9 11.12C456.72 11.13 455.99 11.12 456.23 10.42C456.31 10.18 456.35 9.98995 455.99 9.98995V9.97995ZM450.67 12.61C450.6 12.8 450.47 13.2 450.36 13.62C450.71 13.53 450.97 13.47 451.41 13.48C451.92 13.49 452.24 13.7 452.24 14.12C452.24 15.14 451.11 15.44 450.33 15.44C449.47 15.44 448.72 14.95 448.72 14.01C448.72 12.91 449.32 11.24 449.88 10.13C450.57 8.76995 451.27 8.57995 452.48 8.57995C453.01 8.57995 453.62 8.80995 453.62 9.30995C453.62 10.01 453.03 10.27 452.45 10.31C452.2 10.32 451.82 10.34 451.59 10.32C451.59 10.32 451.4 10.62 451.19 11.14C452.27 10.99 452.73 11.23 452.55 11.86C452.3 12.71 451.57 12.76 450.67 12.6V12.61ZM447.23 13.59C448.29 13.41 448.55 13.79 448.52 14.14C448.42 15.2 447.45 15.44 446.6 15.42C445.99 15.41 445.44 15.13 445.42 14.41C445.39 13.17 446.66 10.29 447.26 9.32995C447.54 8.87995 447.87 8.64995 448.41 8.64995C448.92 8.64995 449.04 8.90995 449.04 9.21995C449.02 10.05 447.67 12.59 447.23 13.58V13.59ZM460.84 7.99995C459.75 7.99995 458.99 8.42995 458.48 9.03995C458.39 8.85995 458.33 8.77995 458.24 8.67995C457.82 8.20995 457.15 7.98995 456.25 7.98995C455.35 7.98995 454.63 8.26995 454.12 8.69995C453.85 8.26995 453.22 7.97995 452.46 7.97995C451.46 7.97995 450.38 8.11995 449.74 9.15995C449.73 8.78995 449.69 8.58995 449.48 8.36995C449.22 8.09995 448.81 8.02995 448.41 8.02995C447.68 8.02995 447.13 8.34995 446.73 8.99995C446.15 9.91995 444.76 12.95 444.79 14.41C444.81 15.36 445.45 16.04 446.58 16.07C447.47 16.09 448.16 15.85 448.61 15.41C449.01 15.84 449.61 16.09 450.34 16.09C451.15 16.09 451.96 15.85 452.44 15.32C452.84 15.82 453.48 16.11 454.3 16.1C455.37 16.1 456.31 15.59 456.93 14.81C457.27 15.73 458.12 16.09 459.06 16.09C461.11 16.09 462 14.68 462.75 12.46C462.92 11.96 463.14 11.12 463.18 10.42C463.24 9.24995 462.75 8.00995 460.85 8.00995L460.84 7.99995Z" fill="#231F20"/>
</svg>
