<svg width="20" height="22" viewBox="0 0 20 22" fill="none" xmlns="http://www.w3.org/2000/svg">
<g clip-path="url(#clip0_188_308)">
<path d="M0.609062 12.686H1.47753V10.6986H0.609062V12.686ZM5.1232 22.0001C6.31616 22.0001 6.86969 20.8631 6.22073 19.6568L2.6514 13.121C2.346 12.5772 1.88791 12.33 1.31529 12.33C0.418189 12.33 -0.0685365 13.0221 0.00781257 13.9417C0.198686 15.1183 0.962177 16.997 1.88791 18.5394C3.34808 21.1003 4.19747 22.0001 5.1232 22.0001ZM19.0379 12.686V10.6986H18.1694V12.686H19.0379ZM14.5237 22.0001C15.4494 22.0001 16.2988 21.1003 17.759 18.5394C18.6752 16.997 19.4482 15.1183 19.6391 13.9417C19.7154 13.0221 19.2287 12.33 18.3316 12.33C17.759 12.33 17.3009 12.5772 16.9955 13.121L13.4262 19.6568C12.7676 20.8631 13.3307 22.0001 14.5237 22.0001ZM0.284578 10.5305C0.284578 10.9952 0.570887 11.282 1.01944 11.282C1.46798 11.282 1.73521 10.9952 1.73521 10.5305C1.78293 5.20103 4.84644 1.81946 9.81872 1.81946C14.8004 1.81946 17.8544 5.20103 17.9021 10.5305C17.9021 10.9952 18.1789 11.282 18.6274 11.282C19.076 11.282 19.3528 10.9952 19.3528 10.5305C19.3528 4.46934 15.7548 0.306641 9.81872 0.306641C3.88253 0.306641 0.284578 4.46934 0.284578 10.5305Z" fill="black" fill-opacity="0.85"/>
<path d="M7.97656 20.0422C8.58735 19.6764 8.74959 18.8557 8.35831 18.1537L5.14209 12.2705C4.75081 11.5686 3.98732 11.3115 3.38607 11.6773C3.01387 11.885 2.92798 12.2508 3.11885 12.5969L7.06991 19.7951C7.27032 20.151 7.6139 20.2499 7.97656 20.0422ZM11.67 20.0422C12.0326 20.2499 12.3761 20.151 12.5671 19.7951L16.5181 12.5969C16.7185 12.2508 16.6326 11.885 16.2605 11.6773C15.6497 11.3115 14.8957 11.5686 14.4948 12.2705L11.2787 18.1537C10.8874 18.8557 11.0592 19.6764 11.67 20.0422ZM4.24499 5.26023C5.81015 4.38023 7.64253 3.94518 9.81852 3.94518C12.004 3.94518 13.8364 4.38023 15.392 5.26023C14.1418 3.59911 12.3571 2.76855 9.81852 2.76855C7.28942 2.76855 5.50475 3.59911 4.24499 5.26023Z" fill="black" fill-opacity="0.425"/>
</g>
<defs>
<clipPath id="clip0_188_308">
<rect width="20" height="22" fill="white"/>
</clipPath>
</defs>
</svg>
