<svg width="20" height="20" viewBox="0 0 20 20" fill="none" xmlns="http://www.w3.org/2000/svg">
<g clip-path="url(#clip0_188_298)">
<path d="M19.6437 9.99512C19.6437 15.5022 15.2432 19.9903 9.82186 19.9903C4.41021 19.9903 0 15.5022 0 9.99512C0 4.47821 4.41021 0 9.82186 0C15.2432 0 19.6437 4.47821 19.6437 9.99512ZM7.01974 6.04607C6.52864 6.04607 6.30717 6.32045 6.30717 6.70261V13.2681C6.30717 13.66 6.52864 13.9344 7.01974 13.9344H7.9923C8.49302 13.9344 8.71449 13.66 8.71449 13.2681V6.70261C8.71449 6.32045 8.49302 6.04607 7.9923 6.04607H7.01974ZM11.6706 6.04607C11.1699 6.04607 10.9485 6.32045 10.9485 6.70261V13.2681C10.9485 13.66 11.1699 13.9344 11.6706 13.9344H12.6433C13.1247 13.9344 13.3462 13.66 13.3462 13.2681V6.70261C13.3462 6.32045 13.1247 6.04607 12.6433 6.04607H11.6706Z" fill="black" fill-opacity="0.85"/>
</g>
<defs>
<clipPath id="clip0_188_298">
<rect width="20" height="20" fill="white"/>
</clipPath>
</defs>
</svg>
