<svg width="55" height="42" viewBox="0 0 55 42" fill="none" xmlns="http://www.w3.org/2000/svg">
<g clip-path="url(#clip0_187_204)">
<path d="M49.79 37.89H46.45L44.17 32.65C47.77 32.26 47.56 35.47 47.56 35.47C49.44 33.19 50.33 30.78 50.49 28.49C51.21 18.17 40.96 17.33 37.55 14.82C34.81 12.81 37.26 12.02 40.42 11.86C43.53 11.7 49.79 11.98 47.49 14.36C47.49 14.36 52.2 12.87 52.12 11.46C52.06 10.37 44.27 10.12 40.68 10.07C40.9 9.37 41.12 8.46 41.25 7.38H45.76C45.76 7.38 52.12 7.38 52.12 10.52C55.08 5.78 51.32 2.7 45.85 4.05C47.83 4.63 47 5.99 46.18 5.9C44.38 5.7 41.37 5.35 41.37 5.34L39.14 6.29L35.22 4.25H38.47C39.54 4.25 40.57 4.63 41.38 5.33C41.17 3.88 41.18 1.85 36.09 1.33C32.61 0.98 27.43 1.32 20.59 1.32C20.59 1.32 29.34 5.03 32.16 7.38L22.31 6.02L31.77 10.34C28.83 15.33 33.02 17.69 34.16 22.85C34.67 25.14 34.64 27.12 33.61 29.52C33.71 25.73 32.57 23.32 31.33 21.19C30.49 19.76 26.42 14.01 29.44 10.52L0 0C5.59 3.71 8.74 10.27 6.52 14.01L19.75 15.32C19.75 15.32 5.73 14.81 4.24 16.01C9.03 15.58 11.77 22.85 10.2 27.07C18.81 24.2 24.21 24.15 27.41 25.32C34.02 27.75 31.67 35.71 26.18 35.5C22.24 35.35 20.67 29.39 23.27 29.89C24.45 30.12 25.94 31.65 25.49 33.83C26.26 34.02 26.9 33.95 27.33 33.85C28.63 29.73 26.07 27.2 23.25 26.6C16.61 25.2 15.62 32.7 21.77 38.26C18.13 40.25 14.57 37.96 12.32 34.65C13.4 35.61 14.63 36.21 15.65 36.58C16.02 36.24 16.64 36.06 17.07 36.16L9.19 29.41L12.33 41.02C12.98 37.54 14.67 39.1 15.21 39.4C16.87 40.33 19.01 40.82 21.58 39.92C22.11 39.74 22.61 39.51 23.07 39.24C28.26 42.53 36.81 39.43 40.3 34.04L44.45 38.24H41.58L42.05 37.59C42.05 37.59 38.21 36.55 38.99 40.01H54.21C53.92 33.71 49.14 35.69 49.79 37.89Z" fill="#010101"/>
</g>
<defs>
<clipPath id="clip0_187_204">
<rect width="54.22" height="41.04" fill="white"/>
</clipPath>
</defs>
</svg>
